<?xml version="1.0" standalone="no"?>
<!DOCTYPE svg PUBLIC "-//W3C//DTD SVG 20010904//EN"
 "http://www.w3.org/TR/2001/REC-SVG-20010904/DTD/svg10.dtd">
<svg version="1.0" xmlns="http://www.w3.org/2000/svg"
 width="512.000000pt" height="512.000000pt" viewBox="0 0 512.000000 512.000000"
 preserveAspectRatio="xMidYMid meet">
<metadata>
Created by potrace 1.14, written by Peter Selinger 2001-2017
</metadata>
<g transform="translate(0.000000,512.000000) scale(0.100000,-0.100000)"
fill="#000000" stroke="none">
<path d="M879 5116 c-2 -2 -23 -7 -46 -11 -136 -20 -301 -142 -378 -279 -93
-166 -97 -357 -13 -536 90 -188 280 -313 493 -324 82 -3 213 26 288 66 86 45
203 165 244 248 110 227 72 488 -97 661 -45 45 -147 121 -170 125 -3 0 -18 6
-35 13 -16 7 -43 17 -60 23 -32 10 -218 22 -226 14z"/>
<path d="M4317 4634 c-1 -1 -21 -5 -45 -9 -102 -15 -235 -106 -294 -200 -52
-85 -69 -146 -69 -252 1 -280 262 -493 538 -442 64 12 159 59 210 103 56 49
120 146 140 215 21 71 20 190 -1 262 -47 159 -194 290 -355 315 -39 6 -120 12
-124 8z"/>
<path d="M2480 4434 c-14 -3 -56 -12 -95 -20 -392 -84 -707 -399 -797 -796
-34 -155 -27 -365 18 -525 l6 -23 -253 0 c-270 0 -319 -6 -408 -52 -105 -54
-200 -189 -218 -308 -10 -66 -9 -2307 1 -2365 18 -105 109 -232 206 -288 106
-60 6 -57 1719 -57 1704 0 1603 -3 1711 56 103 56 188 173 209 289 5 28 10
148 10 268 0 119 0 257 1 305 l0 88 49 13 c51 13 98 54 119 104 9 21 12 124
12 371 -1 326 -2 345 -22 385 -23 46 -87 91 -131 91 -26 0 -27 1 -27 65 0 36
-1 195 -1 354 0 316 -8 378 -56 461 -60 101 -171 187 -268 206 -22 5 -43 9
-47 10 -5 1 -142 2 -307 3 l-298 1 20 78 c16 61 20 111 21 242 0 150 -2 174
-27 265 -82 299 -280 542 -552 677 -63 32 -142 62 -155 61 -3 -1 -12 3 -20 7
-8 4 -32 11 -52 14 -21 3 -55 10 -75 14 -41 9 -251 13 -293 6z"/>
</g>
</svg>
